<svg xmlns="http://www.w3.org/2000/svg" fill="none" viewBox="0 0 256 256"><g clip-path="url(#a)"><path fill="#5DB432" d="M45.5 116.278c-4.75 3.712-8.201 9.079-9.063 16.206l-.084.803-.002.009c-.926 10.196 3.21 18.681 9.149 24.966v4.442a33.735 33.735 0 0 0-1.49 4.968c-1.056 4.839-.494 9.424 1.49 13.413v36.971H9.143A9.143 9.143 0 0 1 0 208.914V79.713c4.368-7.066 22.867-16.3 45.5-24.29v60.855Zm156 101.778h-147v-27.712c.82.479 1.642.91 2.456 1.292 6.223 2.922 13.632 3.991 19.678 3.724l5.135 2.637v-.001c15.164 7.954 31.221 9.895 47.74 5.72h.001c7.847-1.985 14.921-5.468 21.147-10.412 17.26 3.215 33.196-.649 47.107-11.626h.001a57.62 57.62 0 0 0 3.735-3.22v39.598Zm9-163.028c22.698 7.917 41.233 17.205 45.5 24.685v129.201a9.142 9.142 0 0 1-9.143 9.142H210.5v-50.442c12.065-18.838 12.669-43.867 0-63.213V55.028Zm-98.846 4.793c8.944-2.604 17.25 2.626 22.375 9.812 4.191 5.871 6.433 12.486 6.726 19.842.004.066.025.13.057.187a.436.436 0 0 0 .315.209.431.431 0 0 0 .193-.019c6.834-2.433 14.212-3.456 22.134-3.065 14.31.704 26.197 6.517 35.66 17.437.842.973 1.637 1.97 2.386 2.989v57.646a48.118 48.118 0 0 1-9.311 9.754c-12.692 10.015-27.102 13.058-43.227 9.126l-.77-.192c-5.955 5.613-12.918 9.429-20.888 11.444-14.373 3.633-28.182 1.966-41.425-5.001l-7.416-3.807c-7.285.941-19.238-1.069-23.963-7.56v-14.096a23.561 23.561 0 0 1 4.256-6.264.52.52 0 0 0 .054-.634.516.516 0 0 0-.159-.16 34.987 34.987 0 0 1-4.151-3.04v-33.193c3.618-1.759 7.953-2.68 12.362-3.099a.41.41 0 0 0 .335-.225.434.434 0 0 0-.01-.412c-3.693-6.287-7.918-16.538-2.354-22.375 3.103-3.25 7.037-5.141 11.8-5.671l.055-.658c.62-6.774 2.47-12.371 5.551-16.79 5.663-8.102 13.822-10.724 24.478-7.866a.752.752 0 0 0 .868-.377c1.164-2.175 2.521-3.488 4.069-3.942Zm98.846 70.802a49.918 49.918 0 0 1 0 10.427v-10.427Zm-165 8.849a21.275 21.275 0 0 1-.186-5.362c.045-.484.108-.954.186-1.411v6.773Zm9.137-27.991-.137.048v-.506c.046.153.09.306.137.458ZM128 37.943c19.427 0 48.115 6.014 73.5 14.088v41.67c-10.327-9.813-22.974-15.183-37.604-15.903h.001c-5.398-.267-10.645.045-15.716.956-1.383-5.11-3.658-9.91-6.826-14.348h.001c-6.121-8.582-17.663-17.088-31.554-13.411l-.663.184-.013.004c-2.237.655-4.063 1.8-5.55 3.159-4.678-.623-9.302-.368-13.723 1.052-6.037 1.94-10.9 5.8-14.633 10.954l-.358.503-.005.008c-3.132 4.493-5.168 9.66-6.296 15.304a26.955 26.955 0 0 0-9.796 6.295l-.44.451-.007.006A18.133 18.133 0 0 0 54.5 94.9V52.386c25.376-8.202 54.051-14.443 73.5-14.443Z"/><path fill="#5DB432" d="m148.193 183.547-6.287-2.49c-16.032-8.445-26.43-21.179-31.193-38.201-.46-1.66-.868-2.71-1.224-3.149-10.565-13.096-30.848-15.22-42.595-3.515-5.662 5.642-7.584 13.547-5.763 23.714-1.026-1.443-1.726-2.991-2.103-4.644-3.257-14.247-.031-26.65 9.676-37.208 3.494-3.797 8.442-6.35 8.075-11.946-.404-6.206-.453-11.758-.146-16.653.558-7.071 2.427-12.887 5.607-17.448 5.662-8.103 13.822-10.726 24.477-7.866a.766.766 0 0 0 .869-.377c1.164-2.176 2.52-3.49 4.069-3.944 8.943-2.604 17.249 2.626 22.375 9.812 4.191 5.872 6.433 12.487 6.726 19.844a.42.42 0 0 0 .19.327.424.424 0 0 0 .375.05c6.834-2.434 14.212-3.456 22.134-3.065 14.31.704 26.196 6.517 35.66 17.437 18.149 20.963 14.561 53.432-6.925 70.389-12.894 10.174-27.56 13.152-43.997 8.933Z"/><path fill="#EE582C" d="M76.633 89.455c-.307 4.895-.258 10.447.146 16.653.367 5.596-4.581 8.149-8.075 11.946-9.707 10.558-12.933 22.961-9.676 37.208.377 1.653 1.077 3.201 2.103 4.644 2.336 11.081 8.113 19.84 17.333 26.277-9.959 1.287-28.641-2.939-25.66-16.59.948-4.345 2.932-8.121 5.952-11.329a.52.52 0 0 0-.105-.795c-8.127-5.084-14.247-13.348-13.337-23.358 1.026-11.151 11.078-14.98 21.549-15.973a.41.41 0 0 0 .335-.226.43.43 0 0 0-.01-.412c-3.693-6.287-7.92-16.538-2.354-22.375 3.103-3.25 7.036-5.14 11.799-5.67Z"/><path fill="#fff" d="M66.894 136.193c11.747-11.706 32.03-9.582 42.596 3.514.355.44.763 1.489 1.223 3.149 4.689 16.756 14.837 29.357 30.446 37.802l.748.399 6.286 2.49c-5.956 5.614-12.919 9.428-20.89 11.443-14.372 3.634-28.18 1.967-41.423-5l-7.417-3.807c-9.219-6.437-14.997-15.196-17.333-26.277-1.82-10.167.101-18.072 5.764-23.713ZM95.76 192.77a67.654 67.654 0 0 1-1.229-.264l1.23.264Z"/></g><defs><clipPath id="a"><path fill="#fff" d="M0 0h256v256H0z"/></clipPath></defs></svg>