<svg xmlns="http://www.w3.org/2000/svg" fill="none" viewBox="0 0 256 256"><path fill="#0B0203" d="M145.918.346c1.689-.312 3.364-.498 5.07-.183 3.693.506 7.264 1.892 9.774 4.745 1.743 1.946 2.71 4.28 3.432 6.759 2.903-2.27 5.897-4.314 9.411-5.515 4.28-1.546 9.2-1.689 13.47-.047 2.94 1.095 5.392 3.13 7.159 5.704 2.778 3.975 4.026 9.2 4.551 13.958.438 4.433.451 8.967-.241 13.375-.861 5.935-2.53 11.748-5.046 17.198.367.8.678 1.614.96 2.448 5.08-.183 10.038-.054 14.891 1.652 4.009 1.393 7.498 3.991 9.513 7.782 1.298 2.306 1.454 4.962 1.336 7.546-.254 4.026-1.312 8.037-2.743 11.795 9.766 13.307 16.301 28.945 18.909 45.246 2.896 17.991 1.157 36.684-5.178 53.783-4.612 12.487-11.639 24.088-20.534 33.99-7.593 8.485-16.58 15.725-26.462 21.379-13.267 7.593-28.178 12.263-43.415 13.524-4.572.339-8.971.787-13.565.302-3.517-.187-7.024-.481-10.51-.99-16.041-2.266-31.511-8.326-44.846-17.523a106.641 106.641 0 0 1-27.602-27.683c-8.973-13.111-14.951-28.236-17.288-43.954-2.147-14.555-1.296-29.579 2.578-43.779-7.237-11.604-10.87-25.007-11.338-38.63-.305-10.068 1.503-20.1 5.83-29.226 4.5-9.61 11.601-17.77 20.25-23.88 11.604-8.137 25.99-12.691 40.2-11.969 10.59.292 21.053 3.134 30.094 8.716 3.863-6.966 8.872-13.46 14.895-18.693 4.62-3.973 10.381-6.934 16.445-7.83Z"/><path fill="#71BF45" d="M149.934 5.929c2.136.105 4.194.874 5.782 2.326 2.208 1.94 3.388 4.484 4.215 7.25-2.363 2.5-4.602 5.033-6.728 7.74-.607-3.88-1.682-7.848-4.327-10.87-2.36-2.706-5.843-3.862-9.36-3.954 3.16-1.594 6.853-2.696 10.418-2.492Z"/><path fill="#71BF45" d="M182.144 12.07c2.635.488 5.409 1.512 7.06 3.744 2.591 3.34 3.717 7.732 4.198 11.863 1.028 9.726-1.282 19.811-5.714 28.476.597.882 1.139 1.774 1.435 2.808 1.668 5.68 1.464 11.31.867 17.126-1.292-.295-2.53-.705-3.862-.413-.288.335-.238.674.149 1.017 1.261 1.14 2.784 1.977 4.107 3.052 5.294 4.09 8.929 9.743 11.113 16.018 2.933 8.366 3.425 17.431 1.702 26.113-.003-.513-.034-1.018-.166-1.513-1.744-5.958-5.342-11.391-10.218-15.244a32.048 32.048 0 0 0-9.485-5.338c-6.908-2.452-14.38-2.763-21.535-1.268-13.077 2.791-25.004 11.202-31.827 22.725-.813 1.591-1.94 2.706-1.475 4.636-.333-1.991-.394-4.022-.675-6.012-.142-.713-.183-1.329-.977-1.611-1.176.505-1.638 2.177-1.933 3.306-1.177 5.213-.753 10.849.838 15.929a25.593 25.593 0 0 1-8.024 6.799c-6.145 3.357-13.148 4.701-20.086 4.972-10.54.339-21.199-1.394-31.105-5.009-10.344-3.792-19.92-9.94-27.025-18.425-7.512-8.868-11.89-19.839-13.843-31.217-1.93-10.977-1.526-22.41 2.35-32.93 3.307-9.135 9.18-17.169 16.678-23.318 8.736-7.227 19.724-11.913 30.973-13.277 8.651-.892 17.706-.162 25.956 2.69 8.831 3.028 16.608 8.6 22.559 15.769 7.203 8.597 12.073 19.455 15.139 30.175 4.022-1.705 8.301-2.417 12.646-2.604a67.082 67.082 0 0 1 14.87 1.106c1.893.345 3.684.976 5.603 1.19-.509-1.774-1.899-2.452-3.32-3.402 5.09-4.29 9.231-9.8 12.215-15.735.692-1.421 1.451-2.652 1.546-4.27.387-5.293.353-10.696-.471-15.95-.766-4.832-2.163-9.715-5.392-13.517-2.238-2.614-5.297-3.91-8.58-4.676 3.82-2.76 8.974-4.599 13.709-3.785Z"/><path fill="#fff" d="M146.613 19.741c1.605 2.947 1.995 6.332 2.13 9.635-5.195 7.82-9.173 16.16-10.55 25.526-.566-1.163-1.109-2.343-1.679-3.506 1.889-2.364 3.154-5.142 4.073-8.01.648-2.103 1.136-4.413.983-6.624-.145-1.333-.492-2.757-1.73-3.493-1.492-.78-3.069-.346-4.402.532-2.563 1.692-4.188 4.558-5.439 7.288a57.659 57.659 0 0 0-10.635-10.848c2.907-5.325 6.491-10.327 10.72-14.681.99-1.099 2.458-1.53 3.849-1.882 4.911-1.079 10.354 1.654 12.68 6.063ZM162.81 22.224a9.431 9.431 0 0 1 7.254 1.543c2.777 1.902 4.812 5.022 6.104 8.085 2.438 5.826 3.018 12.239 2.863 18.496.01.556-.184 1.017-.445 1.495a76.17 76.17 0 0 1-4.378 7.163c-2.421 3.469-5.178 6.874-8.549 9.468-6.979-2.411-14.823-3.17-22.06-1.54-1.73-5.741-.909-12.378.831-18.031 2.872-9.262 8.566-17.849 14.935-25.082.878-1.153 2.119-1.313 3.445-1.597Z"/><path fill="#0B0203" d="M62.052 34.12c1.177.641 1.553 2.076 1.621 3.317.085 1.946-.319 4.029-1.285 5.728-.248.498-.661.573-1.14.745-.267-1.332-.342-2.692-.606-4.025-.204-.804-.621-1.74-1.594-1.723-2.028-.105-3.059 1.513-5.036 1.605.16-2.11 1.676-3.87 3.334-5.043 1.332-.95 3.194-1.357 4.706-.604ZM90.417 36.921c1.638.509 3.421 1.445 3.811 3.273.187 1.438-.115 3.13-1.04 4.283-.845.417-1.537-1.312-2.144-1.726-2.021-1.73-5.118-1.685-7.586-1.224-3.62.776-7.112 2.408-10.303 4.245-.617.31-.871.374-1.489.017.004-.83.787-1.63 1.292-2.234 2.177-2.286 4.89-4.107 7.695-5.532 2.937-1.529 6.566-2.02 9.764-1.102Z"/><path fill="#fff" d="M135.887 38.04c.641-.348 1.475-.28 1.95.313 1.058 1.261.373 3.584-1.194 4.093-.668.19-1.265 0-1.675-.556-.889-1.198-.329-3.117.919-3.85Z"/><path fill="#0B0203" d="M165.371 46.183c1.54-.492 3.255-.332 4.215 1.102 1.157 1.78 1.045 4.362.749 6.373-.644 3.947-2.292 8.034-5.178 10.882-1.289 1.225-2.865 2.357-4.72 2.35-.8.048-1.418-.508-1.93-1.05-1.163-1.326-1.54-3.283-1.59-4.993-.071-3.686 1.411-7.267 3.414-10.296 1.234-1.808 2.927-3.632 5.04-4.368Z"/><path fill="#fff" d="M164.011 51.551c.983-.477 2.059.116 2.333 1.14.499 1.563-.912 3.835-2.716 3.262-1.795-.803-1.255-3.706.383-4.402Z"/><path fill="#EB7617" d="M201.823 64.818c4.05.495 8.845 1.909 11.392 5.331 1.604 2.055 1.438 4.524 1.231 6.98-.783 5.87-3.049 11.506-6.44 16.355-.295.374-.645.706-.953 1.069-1.096-2.65-2.248-5.213-3.884-7.587a30.843 30.843 0 0 0-8.42-8.481c.481-4.599.736-9.184.461-13.806 2.188-.23 4.426-.01 6.613.139Z"/><path fill="#F8DD00" d="M214.649 93.644c6.502 9.57 11.358 20.243 14.196 31.465 3.633 14.287 4.053 29.388 1.252 43.859-2.832 14.813-9.133 28.857-18.154 40.929-1.434-2.492-3.085-4.829-5.181-6.816-3.646-3.595-8.451-5.823-13.413-6.918-6.298-1.422-12.781-.923-18.926.956-2.476-3.042-6.105-4.375-9.899-4.819-3.582-.329-7.007.787-9.994 2.703-2.747-5.318-5.267-10.809-7.258-16.451 1.336-.197 2.663-.438 3.995-.655 6.213 5.687 14.288 9.435 22.746 9.886 3.428.17 7.318-.238 10.37-1.933 3.056-1.699 4.687-5.152 5.487-8.417 1.455-6.142.793-12.911-.824-18.958 1.376-1.36 2.763-2.695 4.035-4.154 7.275.6 15.152-.305 21.789-3.493 3.161-1.557 6.389-3.975 7.43-7.505 1.191-3.887.777-8.387-.247-12.273-1.869-7.04-5.901-13.097-11.141-18.085-.033-3.965-.702-7.831-1.668-11.663 2.099-2.344 3.818-4.952 5.405-7.658Z"/><path fill="#fff" d="M183.331 99.779a32.025 32.025 0 0 1 9.485 5.338c4.877 3.852 8.475 9.285 10.218 15.244.132.495.163 1 .166 1.512-.814 3.795-2.001 7.505-3.588 11.045-4.3 9.601-11.364 17.961-19.367 24.702-10.323 8.638-22.868 14.098-36.073 16.479a96.22 96.22 0 0 1-12.551 1.207c-2.167.075-4.507-.017-6.624.4-.539.088-.861.441-1.295.739.763.502 1.529.919 2.397 1.215-.878 8.288-1.19 16.403.021 24.682.034.383.525.644.79.874-7.831-3.662-17.316-3.629-25.54-1.377-3.816 1.065-7.75 2.673-10.873 5.159a16.5 16.5 0 0 0-2-3.029c2.862-7.864 6.368-15.481 10.618-22.697 1.688-2.828 3.472-5.62 5.48-8.234-6.796-1.126-13.44-4.056-19.436-7.383-5.439-3.042-9.926-7.528-12.032-13.487 6.745 1.54 13.593 2.299 20.51 2.35 6.831-.034 13.827-.644 20.338-2.828 5.484-1.838 10.506-4.69 14.236-9.19 1.391 2.051 2.944 3.886 5.094 5.178 1.58.967 3.585 1.651 5.447 1.377.722-.133 1.373-.37 1.75-1.048.034-.733-.814-1.367-1.299-1.821-2.438-2.028-4.412-4.521-5.969-7.278-2.306-4.046-3.876-8.465-4.741-13.036-.465-1.93.661-3.046 1.475-4.636 6.824-11.524 18.751-19.934 31.827-22.725 7.157-1.496 14.628-1.184 21.536 1.268Z"/><path fill="#EB7617" d="M210.492 120.649c3.526 4.029 6.114 9.17 6.762 14.515.217 2.336.23 5.052-.821 7.21-.821 1.404-2.438 2.414-3.839 3.171-4.52 2.252-9.815 3.167-14.834 3.214 1.896-2.797 3.839-5.538 5.487-8.498 2.124-3.839 4.016-7.749 5.348-11.937.835-2.517 1.347-5.088 1.897-7.675Z"/><path fill="#F8DD00" d="M33.969 128.069c8.4 10.544 19.988 18.272 32.814 22.342.542 3.086 1.515 6.063 3.17 8.742 2.625 4.345 6.434 7.654 10.734 10.276 4.71 2.818 9.95 4.887 15.305 6.091-5.443 7.654-9.387 16.407-12.429 25.265-.434-.139-.865-.281-1.299-.42-1.526-4.921-5.11-8.899-9.614-11.314-5.175-2.733-11.127-3.781-16.933-3.15-5.409.634-10.516 2.669-15.026 5.694-2.937-6.464-5.236-13.203-6.752-20.141-3.158-14.265-3.07-29.122.03-43.385Z"/><path fill="#EB7617" d="M183.89 162.988c.435.18.346.56.462.95.447 2.676.525 5.444.352 8.146-.248 2.496-.885 5.487-2.621 7.396-1.597 1.642-4.545 1.94-6.715 2.106-6.002.156-12.094-1.923-16.95-5.416 8.13-2.502 15.855-6.148 22.732-11.181.926-.644 1.781-1.407 2.74-2.001Z"/><path fill="#71BF45" d="M126.099 177.659c4.755 1.461 10.086 1.492 15.017 1.312 4.69 12.599 10.94 24.757 18.893 35.612.38.485.431.987.461 1.58.2 5.294 2.018 10.673 4.188 15.468 1.757 3.672 3.951 7.25 6.695 10.272-8.13 3.497-16.733 5.955-25.503 7.163.553-2.13 1.086-4.253 1.323-6.447 1.085-8.723-.964-17.811-5.474-25.333-3.523-5.932-8.569-10.998-14.789-14.071-.265-.231-.757-.492-.79-.875-1.211-8.277-.899-16.392-.021-24.681ZM66.098 193.178c4.026 1.247 7.627 3.564 9.882 7.192-1.027.377-2.065.739-3.072 1.17-3.317 1.455-5.955 3.704-8.658 6.037-1.157-.661-2.177-1.472-3.46-1.916-3.977-1.502-8.162-1.011-12.184.017a106.321 106.321 0 0 1-5.297-8.838c2.333-1.475 4.741-2.778 7.393-3.591 4.964-1.699 10.407-1.675 15.396-.071Z"/><path fill="#fff" d="M161.457 197.892c2.357-.502 4.897-.055 6.993 1.112 2.062 1.194 3.3 3.171 4.087 5.362 1.193 3.357 1.678 7.104 2.197 10.618.546 3.567 1.493 7.04 2.975 10.337 1.604 3.689 3.767 6.894 6.114 10.136-2.533 1.476-5.06 2.94-7.698 4.219-1.275-1.407-2.476-2.879-3.527-4.462-5.121-7.692-7.447-16.726-8.342-25.832-.19-1.339-.058-2.845-.702-4.015-.709.529-1.197 1.136-1.669 1.875-1.669-2.513-3.327-5.029-4.826-7.647 1.424-.72 2.811-1.409 4.398-1.703Z"/><path fill="#EA4225" d="M189.242 200.804c-.424.068-.845.129-1.265.19 1.245-.01 2.459.099 3.656.448 3.642.994 7.162 2.601 10.143 4.938 2.479 1.991 4.707 4.473 6.234 7.271.481.855-.241 1.313-.689 1.957-2.591 2.917-5.361 5.697-8.21 8.363-3.412 3.092-7.051 5.88-10.774 8.583l-.489.044c-4.971-5.527-7.44-12.554-8.509-19.811-.495-3.897-1.095-7.722-2.485-11.419 4.12-1.038 8.193-.821 12.388-.564Z"/><path fill="#71BF45" d="M81.752 206.326c2.435.946 4.016 2.848 5.22 5.093-.849 1.838-1.523 3.731-1.75 5.755-.54 4.1.23 7.98 1.396 11.89-1.475 2.95-1.93 6.08-1.72 9.353-2.814-1.486-5.513-3.154-8.21-4.843 1.075-.76 2.184-1.496 2.968-2.57 1.418-1.869 1.903-4.239 1.584-6.545-.116-1.065-.495-1.791-1.157-2.615-1.404 1.879-1.692 3.893-3.357 5.555-1.431 1.455-3.205 2.055-5.125 2.57-3.16-2.455-6.227-4.995-9.102-7.783.152-2.36.739-4.629 2.044-6.626 2.144-3.286 5.122-6.138 8.523-8.102 2.68-1.468 5.726-2.326 8.686-1.132ZM123.692 208.157c2.801 1.214 5.226 3.025 7.423 5.128 5.647 5.67 9.374 13.232 10.313 21.192.614 5.199-.119 10.431-2.004 15.305-12.094.888-24.306-.339-35.938-3.778a21.283 21.283 0 0 1 6.624-4.212c4.609-1.835 9.441-3.093 14.382-3.592 1.068-.176 2.052-.068 2.778-1.031-.942-.729-1.926-1.332-3.113-1.58-4.243-1.024-9.031-.428-13.223.628-5.29 1.295-10.425 3.52-14.226 7.528-1.486-.59-2.985-1.15-4.453-1.774-.464-.244-.97-.335-1.156-.878-1.068-2.968-1.035-6.379.773-9.058 2.289-3.473 6.44-5.816 10.205-7.359 5.48-2.174 11.76-3.459 17.645-2.628 2.095.251 4.055.844 6.182.841-.248-1.465-1.418-2.096-2.554-2.859-3.855-2.313-8.658-3.032-13.09-2.707-6.881.58-13.453 2.262-19.015 6.532-.332-1.998-.563-3.965-.268-5.989.414-2.947 1.916-5.752 4.507-7.322 3.581-2.231 7.912-3.472 12.053-4.124 5.415-.779 11.092-.471 16.155 1.737ZM52.312 210.748c2.92-.417 5.735-.407 8.224 1.38-1.051 1.743-1.92 3.514-2.544 5.457-1.97-2.201-3.95-4.436-5.68-6.837Z"/></svg>
