<svg xmlns="http://www.w3.org/2000/svg" fill="none" viewBox="0 0 256 256"><g filter="url(#a)"><mask id="b" width="198" height="229" x="28.736" y="9.48" fill="#000" maskUnits="userSpaceOnUse"><path fill="#fff" d="M28.736 9.48h198v229h-198z"/><path d="M143.043 16.771c1.418-.262 2.826-.42 4.258-.154 3.103.424 6.102 1.59 8.21 3.985 1.465 1.635 2.276 3.596 2.883 5.678 2.439-1.906 4.954-3.623 7.905-4.632 3.596-1.299 7.729-1.419 11.316-.04 2.469.92 4.53 2.629 6.014 4.791 2.333 3.339 3.38 7.729 3.822 11.726.367 3.723.379 7.532-.202 11.235-.724 4.985-2.125 9.867-4.239 14.445.308.672.569 1.356.806 2.057 4.267-.154 8.433-.045 12.509 1.388 3.367 1.17 6.298 3.352 7.99 6.537 1.091 1.937 1.222 4.168 1.123 6.339-.214 3.381-1.103 6.75-2.305 9.907a87.973 87.973 0 0 1 15.884 38.007c2.433 15.112.972 30.815-4.349 45.177-3.875 10.489-9.778 20.235-17.249 28.552a89.576 89.576 0 0 1-22.228 17.958c-11.144 6.378-23.67 10.301-36.469 11.361-3.84.284-7.535.661-11.394.253-2.954-.156-5.9-.404-8.828-.832-13.475-1.903-26.47-6.994-37.671-14.719a89.576 89.576 0 0 1-23.186-23.253c-7.538-11.013-12.559-23.719-14.521-36.922-1.803-12.226-1.089-24.846 2.165-36.774-6.08-9.748-9.13-21.007-9.524-32.45-.256-8.457 1.262-16.883 4.897-24.549 3.78-8.072 9.745-14.927 17.01-20.06 9.748-6.834 21.832-10.66 33.768-10.053 8.896.245 17.685 2.631 25.279 7.32 3.245-5.85 7.453-11.305 12.512-15.7 3.881-3.338 8.72-5.826 13.814-6.578Z"/></mask><path fill="#fff" d="m143.043 16.771.92 6.233.113-.017.111-.02-1.144-6.196Zm4.258-.154-1.145 6.195.145.027.146.02.854-6.242Zm8.21 3.985-4.729 4.162.018.02.018.021 4.693-4.203Zm2.883 5.678-6.048 1.762 2.601 8.928 7.327-5.726-3.88-4.964Zm7.905-4.632 2.038 5.962.052-.018.051-.019-2.141-5.925Zm11.316-.04-2.261 5.88.031.012.03.012 2.2-5.904Zm6.014 4.791-5.195 3.565.015.022.016.022 5.164-3.609Zm3.822 11.726 6.269-.62-.003-.036-.004-.036-6.262.692Zm-.202 11.235-6.224-.977-.006.036-.005.036 6.235.905Zm-4.239 14.445-5.72-2.64-1.214 2.63 1.206 2.634 5.728-2.624Zm.806 2.057-5.969 2.016 1.503 4.45 4.693-.17-.227-6.296Zm12.509 1.388-2.089 5.943.01.004.01.003 2.069-5.95Zm7.99 6.537-5.563 2.956.036.068.038.068 5.489-3.092Zm1.123 6.339 6.288.397.003-.055.003-.054-6.294-.288Zm-2.305 9.907-5.887-2.242-1.221 3.205 2.03 2.764 5.078-3.727Zm15.884 38.007-6.221.995.001.006 6.22-1.001Zm-4.349 45.177-5.908-2.188-.002.006 5.91 2.182Zm-17.249 28.552-4.687-4.21-.008.009 4.695 4.201Zm-22.228 17.958-3.128-5.468h-.001l3.129 5.468Zm-36.469 11.361.466 6.282.027-.002.027-.002-.52-6.278Zm-11.394.253.661-6.265-.164-.017-.163-.009-.334 6.291Zm-8.828-.832.91-6.234-.015-.002-.014-.002-.881 6.238ZM80.829 215.79l3.577-5.186-.01-.007-3.567 5.193Zm-23.186-23.253 5.203-3.553-.004-.006-5.199 3.559Zm-14.521-36.922-6.233.919.001.007 6.232-.926Zm2.165-36.774 6.078 1.658.724-2.655-1.456-2.336-5.346 3.333Zm-9.524-32.45-6.297.191v.013l.001.013 6.296-.217Zm4.897-24.549 5.692 2.7.007-.014.006-.014-5.705-2.672Zm17.01-20.06-3.617-5.159-.01.007-.009.007 3.636 5.145Zm33.768-10.053-.32 6.292.074.004.073.002.173-6.298Zm25.279 7.32-3.309 5.361 5.617 3.469 3.202-5.774-5.51-3.055Zm12.512-15.7-4.108-4.777-.012.01-.012.01 4.132 4.756Zm13.814-6.578 1.144 6.195c1.192-.22 1.686-.207 1.969-.154l1.145-6.195 1.146-6.195c-2.583-.478-4.904-.15-6.549.154l1.145 6.195Zm4.258-.154-.854 6.242c2.198.3 3.562 1.027 4.335 1.905l4.729-4.162 4.73-4.162c-3.444-3.913-8.078-5.517-12.085-6.065l-.855 6.242Zm8.21 3.985-4.693 4.203c.552.617 1.032 1.536 1.528 3.237l6.048-1.762 6.049-1.762c-.718-2.463-1.862-5.465-4.238-8.119l-4.694 4.203Zm2.883 5.678 3.88 4.964c2.277-1.78 4.125-2.972 6.063-3.634l-2.038-5.962-2.037-5.961c-3.965 1.355-7.147 3.597-9.747 5.629l3.879 4.964Zm7.905-4.632 2.141 5.925c2.348-.848 4.908-.856 6.914-.084l2.261-5.88 2.26-5.882c-5.167-1.986-10.874-1.754-15.717-.004l2.141 5.925Zm11.316-.04-2.2 5.904c1.135.422 2.193 1.249 3.019 2.452l5.195-3.565 5.194-3.565c-2.142-3.121-5.204-5.712-9.008-7.13l-2.2 5.904Zm6.014 4.791-5.164 3.609c1.441 2.063 2.327 5.213 2.724 8.808l6.262-.691 6.262-.692c-.486-4.398-1.696-10.028-4.921-14.643l-5.163 3.61Zm3.822 11.726-6.27.619c.33 3.334.323 6.59-.156 9.639l6.224.977 6.223.977c.684-4.356.654-8.72.248-12.831l-6.269.619Zm-.202 11.235-6.235-.905c-.642 4.422-1.88 8.716-3.724 12.71l5.72 2.64 5.72 2.64c2.383-5.161 3.948-10.632 4.753-16.18l-6.234-.905Zm-4.239 14.445-5.728 2.624c.197.428.38.9.565 1.45l5.969-2.017 5.969-2.016a27.353 27.353 0 0 0-1.047-2.664l-5.728 2.623Zm.806 2.057.227 6.296c4.09-.148 7.275.01 10.193 1.035l2.089-5.943 2.089-5.944c-5.234-1.84-10.38-1.9-14.825-1.74l.227 6.296Zm12.509 1.388-2.069 5.95c2.176.757 3.69 2.026 4.496 3.543l5.563-2.956 5.563-2.956c-2.578-4.853-6.926-7.947-11.484-9.532l-2.069 5.95Zm7.99 6.537-5.489 3.092c.191.34.405 1.08.319 2.959l6.293.288 6.294.288c.112-2.463.063-6.185-1.928-9.72l-5.489 3.093Zm1.123 6.339-6.287-.398c-.163 2.573-.855 5.305-1.905 8.063l5.887 2.242 5.888 2.242c1.354-3.555 2.44-7.562 2.705-11.752l-6.288-.397Zm-2.305 9.907-5.078 3.727a81.692 81.692 0 0 1 14.741 35.275l6.221-.995 6.221-.996a94.295 94.295 0 0 0-17.026-40.739l-5.079 3.728Zm15.884 38.007-6.22 1.001c2.264 14.061.899 28.663-4.037 41.988l5.908 2.188 5.907 2.189c5.706-15.401 7.264-32.204 4.662-48.367l-6.22 1.001Zm-4.349 45.177-5.91-2.182c-3.596 9.734-9.081 18.793-16.026 26.524l4.687 4.21 4.686 4.21c7.999-8.904 14.319-19.336 18.472-30.579l-5.909-2.183Zm-17.249 28.552-4.695-4.201a83.284 83.284 0 0 1-20.661 16.691l3.128 5.468 3.128 5.469a95.849 95.849 0 0 0 23.794-19.226l-4.694-4.201Zm-22.228 17.958-3.129-5.468c-10.353 5.925-21.989 9.567-33.859 10.55l.519 6.279.52 6.278c13.728-1.136 27.143-5.34 39.078-12.171l-3.129-5.468Zm-36.469 11.361-.466-6.283c-4.099.304-7.109.604-10.267.271l-.661 6.265-.661 6.266c4.561.481 8.941.029 12.521-.237l-.466-6.282Zm-11.394.253.334-6.291c-2.83-.15-5.573-.383-8.252-.775l-.91 6.234-.91 6.234c3.176.464 6.325.726 9.404.89l.334-6.292Zm-8.828-.832.881-6.238c-12.501-1.765-24.574-6.494-34.975-13.667l-3.577 5.186-3.577 5.186c12.001 8.277 25.919 13.731 40.367 15.772l.881-6.239ZM80.829 215.79l3.567-5.193a83.273 83.273 0 0 1-21.55-21.613l-5.203 3.553-5.202 3.553a95.877 95.877 0 0 0 24.82 24.892l3.568-5.192Zm-23.186-23.253 5.199-3.559c-7.005-10.234-11.668-22.041-13.489-34.289l-6.231.926-6.232.926c2.105 14.159 7.483 27.762 15.554 39.554l5.2-3.558Zm-14.521-36.922 6.232-.919c-1.678-11.381-1.01-23.122 2.01-34.197l-6.077-1.658-6.078-1.657c-3.486 12.78-4.248 26.278-2.32 39.35l6.233-.919Zm2.165-36.774 5.346-3.333c-5.424-8.697-8.214-18.853-8.573-29.333l-6.297.216-6.296.216c.426 12.406 3.74 24.769 10.474 35.568l5.346-3.334Zm-9.524-32.45 6.297-.19c-.23-7.585 1.136-15.002 4.292-21.66l-5.692-2.699-5.693-2.699c-4.112 8.674-5.784 18.11-5.5 27.44l6.296-.192Zm4.897-24.549 5.705 2.672c3.281-7.007 8.498-13.035 14.94-17.587l-3.636-5.145-3.635-5.145c-8.086 5.714-14.8 13.395-19.08 22.534l5.706 2.671Zm17.01-20.06 3.616 5.159c8.7-6.1 19.416-9.45 29.832-8.92l.32-6.292.32-6.292c-13.456-.684-26.908 3.617-37.705 11.186l3.617 5.159Zm33.768-10.053-.173 6.298c7.9.217 15.585 2.334 22.143 6.383l3.309-5.36 3.31-5.361c-8.631-5.33-18.523-7.985-28.416-8.258l-.173 6.298Zm25.279 7.32 5.51 3.056c2.94-5.302 6.705-10.153 11.134-14l-4.132-4.757-4.132-4.755c-5.689 4.943-10.34 11-13.889 17.401l5.509 3.056Zm12.512-15.7 4.108 4.776c3.142-2.703 6.91-4.573 10.626-5.121l-.92-6.233-.921-6.232c-6.47.955-12.381 4.06-17.001 8.033l4.108 4.776Z" mask="url(#b)"/></g><path fill="#0B0203" d="M143.043 16.77c1.418-.261 2.826-.418 4.259-.153 3.102.425 6.101 1.59 8.209 3.985 1.465 1.636 2.277 3.596 2.883 5.678 2.439-1.906 4.954-3.623 7.905-4.632 3.596-1.3 7.729-1.419 11.315-.04 2.47.92 4.53 2.63 6.014 4.791 2.333 3.34 3.382 7.729 3.823 11.726.368 3.723.379 7.532-.202 11.235-.724 4.985-2.126 9.867-4.239 14.445.308.673.57 1.356.806 2.057 4.268-.154 8.432-.045 12.509 1.387 3.367 1.171 6.298 3.353 7.99 6.538 1.091 1.937 1.222 4.167 1.123 6.338-.214 3.382-1.103 6.752-2.305 9.908a87.973 87.973 0 0 1 15.884 38.007c2.433 15.112.972 30.814-4.349 45.177-3.875 10.489-9.777 20.234-17.249 28.552a89.576 89.576 0 0 1-22.228 17.958c-11.144 6.378-23.67 10.301-36.469 11.36-3.84.285-7.535.661-11.394.254-2.955-.157-5.9-.404-8.828-.832-13.475-1.903-26.47-6.993-37.671-14.719a89.577 89.577 0 0 1-23.185-23.254c-7.538-11.013-12.56-23.718-14.523-36.921-1.803-12.227-1.088-24.846 2.165-36.774-6.079-9.748-9.13-21.006-9.523-32.45-.256-8.457 1.262-16.883 4.897-24.549 3.78-8.073 9.745-14.927 17.01-20.06 9.748-6.834 21.832-10.66 33.768-10.053 8.896.245 17.684 2.632 25.279 7.321 3.245-5.851 7.452-11.306 12.512-15.702 3.881-3.338 8.72-5.825 13.814-6.577Z"/><path fill="#71BF45" d="M146.416 21.46c1.795.088 3.523.735 4.857 1.954 1.854 1.63 2.846 3.766 3.541 6.09-1.985 2.1-3.866 4.228-5.652 6.501-.509-3.259-1.413-6.591-3.634-9.13-1.983-2.273-4.909-3.244-7.863-3.321 2.655-1.339 5.757-2.265 8.751-2.094Z"/><path fill="#71BF45" d="M173.472 26.619c2.214.41 4.544 1.27 5.931 3.145 2.177 2.805 3.122 6.495 3.527 9.964.863 8.17-1.077 16.642-4.801 23.92.502.741.957 1.49 1.205 2.36 1.402 4.77 1.231 9.5.73 14.385-1.086-.248-2.126-.592-3.245-.347-.242.282-.2.566.125.855 1.06.957 2.339 1.66 3.45 2.564 4.447 3.435 7.501 8.183 9.335 13.454 2.464 7.027 2.877 14.642 1.43 21.935-.003-.43-.029-.855-.14-1.271-1.464-5.004-4.487-9.568-8.583-12.804a26.87 26.87 0 0 0-7.968-4.484c-5.802-2.06-12.078-2.322-18.089-1.066-10.984 2.345-21.003 9.41-26.734 19.09-.684 1.335-1.63 2.273-1.24 3.894-.279-1.673-.33-3.379-.566-5.051-.12-.598-.154-1.116-.821-1.353-.988.424-1.376 1.829-1.624 2.777-.988 4.379-.632 9.113.704 13.381a21.506 21.506 0 0 1-6.74 5.711c-5.161 2.82-11.044 3.948-16.872 4.176-8.854.285-17.807-1.171-26.128-4.208-8.689-3.184-16.734-8.349-22.702-15.477-6.31-7.449-9.987-16.664-11.628-26.222-1.62-9.22-1.281-18.824 1.974-27.66 2.778-7.674 7.712-14.423 14.01-19.588C65.35 42.63 74.58 38.692 84.03 37.547c7.267-.75 14.873-.137 21.804 2.258 7.417 2.544 13.95 7.225 18.949 13.247 6.05 7.221 10.141 16.342 12.716 25.347 3.379-1.433 6.974-2.03 10.623-2.188a56.344 56.344 0 0 1 12.491.93c1.59.29 3.094.82 4.706.999-.427-1.49-1.595-2.06-2.788-2.857 4.275-3.604 7.754-8.233 10.26-13.218.582-1.194 1.219-2.228 1.299-3.587.325-4.446.297-8.984-.395-13.397-.644-4.06-1.818-8.161-4.53-11.355-1.88-2.196-4.449-3.284-7.207-3.928 3.209-2.319 7.538-3.863 11.515-3.18Z"/><path fill="#fff" d="M143.627 33.063c1.347 2.475 1.675 5.318 1.789 8.093-4.364 6.569-7.706 13.574-8.862 21.442-.476-.977-.932-1.968-1.411-2.946 1.587-1.985 2.65-4.318 3.421-6.728.545-1.766.955-3.706.827-5.564-.123-1.12-.414-2.316-1.453-2.934-1.254-.655-2.578-.29-3.698.447-2.154 1.422-3.518 3.829-4.569 6.122a48.439 48.439 0 0 0-8.934-9.113c2.442-4.472 5.453-8.674 9.005-12.332.831-.923 2.065-1.284 3.233-1.58 4.126-.907 8.698 1.39 10.652 5.093ZM157.232 35.148a7.92 7.92 0 0 1 6.093 1.296c2.333 1.598 4.042 4.219 5.128 6.791 2.048 4.894 2.535 10.281 2.404 15.537.009.468-.154.855-.373 1.257a64.229 64.229 0 0 1-3.678 6.016c-2.034 2.914-4.349 5.774-7.181 7.953-5.863-2.025-12.451-2.663-18.531-1.293-1.453-4.823-.763-10.398.699-15.147 2.412-7.78 7.195-14.992 12.545-21.069.738-.968 1.78-1.102 2.894-1.341Z"/><path fill="#0B0203" d="M72.595 45.14c.989.54 1.305 1.744 1.362 2.787.071 1.635-.268 3.384-1.08 4.811-.208.42-.555.482-.957.627-.225-1.12-.287-2.262-.51-3.382-.17-.675-.52-1.461-1.338-1.447-1.704-.088-2.57 1.27-4.23 1.348.133-1.772 1.407-3.25 2.8-4.236 1.119-.798 2.683-1.14 3.953-.507ZM96.422 47.494c1.375.427 2.874 1.213 3.201 2.749.157 1.207-.097 2.629-.874 3.598-.71.35-1.29-1.103-1.8-1.45-1.698-1.453-4.3-1.416-6.373-1.029-3.04.653-5.974 2.023-8.654 3.567-.519.26-.732.313-1.25.014.002-.698.66-1.37 1.085-1.877 1.828-1.92 4.107-3.45 6.463-4.646 2.467-1.285 5.515-1.698 8.202-.926Z"/><path fill="#fff" d="M134.616 48.434c.539-.293 1.24-.236 1.638.262.889 1.06.314 3.012-1.002 3.439-.561.16-1.063 0-1.408-.468-.746-1.005-.276-2.618.772-3.233Z"/><path fill="#0B0203" d="M159.383 55.274c1.293-.413 2.735-.28 3.541.926.972 1.495.877 3.663.629 5.353-.541 3.316-1.925 6.748-4.349 9.141-1.083 1.028-2.408 1.98-3.966 1.974-.672.04-1.19-.427-1.621-.883-.977-1.114-1.293-2.757-1.335-4.193-.06-3.097 1.185-6.105 2.868-8.649 1.036-1.518 2.458-3.051 4.233-3.67Z"/><path fill="#fff" d="M158.241 59.783c.826-.401 1.729.097 1.96.957.418 1.313-.767 3.222-2.282 2.74-1.508-.674-1.054-3.113.322-3.697Z"/><path fill="#EB7617" d="M190.003 70.927c3.401.416 7.43 1.604 9.569 4.478 1.348 1.727 1.208 3.8 1.034 5.863-.658 4.93-2.561 9.665-5.41 13.739-.247.313-.541.593-.8.897-.92-2.225-1.889-4.378-3.262-6.372a25.915 25.915 0 0 0-7.073-7.125c.404-3.863.618-7.714.387-11.597 1.838-.193 3.718-.008 5.555.117Z"/><path fill="#F8DD00" d="M200.777 95.141c5.461 8.039 9.54 17.004 11.925 26.43 3.051 12.002 3.404 24.687 1.051 36.842-2.379 12.443-7.672 24.24-15.249 34.381-1.205-2.094-2.592-4.057-4.353-5.726-3.062-3.02-7.099-4.891-11.266-5.811-5.29-1.194-10.737-.775-15.898.803-2.08-2.555-5.128-3.675-8.316-4.048-3.008-.276-5.885.661-8.395 2.27-2.307-4.467-4.424-9.079-6.096-13.819 1.123-.165 2.237-.367 3.356-.549 5.219 4.777 12.001 7.925 19.106 8.304 2.88.142 6.147-.2 8.711-1.624 2.567-1.427 3.937-4.327 4.609-7.071 1.222-5.158.667-10.844-.692-15.924 1.156-1.142 2.321-2.264 3.39-3.489 6.11.504 12.727-.257 18.302-2.935 2.655-1.307 5.367-3.338 6.242-6.304 1-3.265.652-7.045-.208-10.309-1.57-5.914-4.957-11.002-9.358-15.192-.028-3.33-.59-6.577-1.402-9.796 1.763-1.97 3.207-4.16 4.541-6.433Z"/><path fill="#fff" d="M174.469 100.294a26.915 26.915 0 0 1 7.968 4.484c4.096 3.236 7.119 7.8 8.583 12.805.111.416.137.84.14 1.27a46.548 46.548 0 0 1-3.014 9.278c-3.612 8.065-9.546 15.087-16.269 20.75-8.671 7.255-19.209 11.842-30.301 13.842a80.852 80.852 0 0 1-10.543 1.014c-1.82.063-3.786-.014-5.564.336-.453.074-.723.371-1.088.621.641.422 1.284.772 2.014 1.02-.738 6.962-1 13.779.017 20.733.029.322.442.541.664.735-6.578-3.077-14.546-3.049-21.454-1.157-3.205.894-6.509 2.245-9.133 4.333a13.847 13.847 0 0 0-1.68-2.544c2.404-6.606 5.349-13.004 8.919-19.066 1.418-2.375 2.917-4.72 4.603-6.916-5.708-.946-11.29-3.407-16.326-6.202-4.569-2.555-8.337-6.323-10.107-11.329 5.666 1.294 11.418 1.931 17.23 1.974 5.736-.028 11.613-.541 17.083-2.375 4.606-1.544 8.825-3.94 11.958-7.72 1.168 1.723 2.473 3.264 4.279 4.349 1.327.812 3.011 1.388 4.575 1.157.607-.111 1.154-.311 1.47-.88.029-.615-.684-1.148-1.091-1.53-2.048-1.703-3.706-3.797-5.014-6.113-1.937-3.399-3.256-7.111-3.983-10.951-.39-1.621.556-2.558 1.24-3.894 5.731-9.68 15.75-16.744 26.734-19.089 6.012-1.257 12.288-.995 18.09 1.065Z"/><path fill="#EB7617" d="M197.284 117.825c2.963 3.384 5.137 7.703 5.681 12.192.182 1.963.193 4.245-.69 6.057-.689 1.179-2.048 2.028-3.225 2.663-3.797 1.892-8.244 2.661-12.46 2.701 1.593-2.35 3.225-4.652 4.609-7.139 1.784-3.224 3.373-6.509 4.493-10.027.701-2.114 1.131-4.273 1.592-6.447Z"/><path fill="#F8DD00" d="M49.005 124.058c7.057 8.857 16.79 15.348 27.564 18.767.456 2.592 1.273 5.093 2.664 7.344 2.204 3.649 5.404 6.429 9.016 8.632 3.957 2.367 8.358 4.104 12.856 5.116-4.572 6.429-7.885 13.782-10.44 21.222-.365-.116-.727-.236-1.092-.353-1.281-4.133-4.292-7.475-8.075-9.503-4.347-2.296-9.347-3.176-14.224-2.646-4.544.532-8.834 2.242-12.622 4.782-2.467-5.429-4.398-11.09-5.672-16.918-2.652-11.982-2.578-24.462.025-36.443Z"/><path fill="#EB7617" d="M174.94 153.39c.364.151.29.471.387.798.376 2.248.441 4.573.296 6.843-.208 2.096-.744 4.609-2.202 6.212-1.341 1.379-3.817 1.63-5.64 1.769-5.042.131-10.159-1.615-14.238-4.549 6.828-2.102 13.317-5.164 19.095-9.392.777-.541 1.495-1.182 2.302-1.681Z"/><path fill="#71BF45" d="M126.395 165.714c3.994 1.227 8.472 1.253 12.614 1.102 3.94 10.583 9.19 20.795 15.87 29.914.319.407.362.829.387 1.327.168 4.447 1.695 8.965 3.518 12.993 1.476 3.085 3.319 6.09 5.624 8.629-6.829 2.937-14.056 5.002-21.422 6.016.464-1.789.911-3.572 1.111-5.415.911-7.327-.81-14.961-4.598-21.28-2.96-4.982-7.199-9.238-12.423-11.819-.222-.194-.636-.414-.664-.735-1.017-6.953-.754-13.77-.017-20.732ZM75.994 178.749c3.381 1.048 6.406 2.994 8.301 6.042-.863.316-1.735.621-2.58.983-2.787 1.222-5.003 3.111-7.274 5.071-.971-.556-1.828-1.237-2.905-1.61-3.342-1.262-6.857-.849-10.236.014a89.337 89.337 0 0 1-4.449-7.423c1.96-1.24 3.983-2.334 6.21-3.017 4.17-1.427 8.742-1.407 12.933-.06Z"/><path fill="#fff" d="M156.096 182.709c1.979-.422 4.113-.046 5.873.934 1.733 1.003 2.772 2.664 3.433 4.504 1.003 2.82 1.41 5.968 1.846 8.919.459 2.997 1.254 5.914 2.499 8.683 1.347 3.1 3.165 5.792 5.136 8.515-2.128 1.239-4.25 2.47-6.466 3.544-1.072-1.182-2.08-2.418-2.963-3.749-4.302-6.46-6.256-14.049-7.008-21.698-.159-1.125-.048-2.39-.59-3.373-.595.445-1.005.954-1.401 1.576-1.402-2.111-2.795-4.225-4.054-6.424 1.196-.605 2.361-1.183 3.695-1.431Z"/><path fill="#EA4225" d="M179.435 185.156c-.356.057-.71.108-1.063.159 1.046-.008 2.066.083 3.071.376 3.06.835 6.017 2.185 8.521 4.148 2.082 1.673 3.954 3.758 5.236 6.108.404.718-.203 1.102-.579 1.644-2.176 2.45-4.503 4.785-6.896 7.024-2.866 2.598-5.923 4.94-9.05 7.21l-.411.038c-4.176-4.644-6.25-10.546-7.147-16.642-.417-3.274-.921-6.487-2.088-9.592 3.461-.872 6.882-.689 10.406-.473Z"/><path fill="#71BF45" d="M89.143 189.794c2.045.795 3.373 2.393 4.384 4.278-.712 1.544-1.279 3.134-1.47 4.834-.453 3.444.194 6.703 1.174 9.987-1.24 2.479-1.621 5.108-1.444 7.857-2.365-1.248-4.633-2.649-6.897-4.068.903-.638 1.834-1.256 2.493-2.159 1.19-1.57 1.598-3.561 1.33-5.498-.097-.894-.416-1.504-.972-2.196-1.18 1.578-1.421 3.27-2.82 4.666-1.202 1.222-2.692 1.727-4.305 2.159-2.655-2.062-5.23-4.196-7.645-6.537.127-1.983.62-3.889 1.717-5.567 1.8-2.76 4.302-5.156 7.159-6.805 2.251-1.233 4.81-1.954 7.296-.951ZM124.372 191.332c2.353 1.02 4.39 2.541 6.236 4.307 4.743 4.763 7.874 11.116 8.663 17.801.515 4.368-.1 8.763-1.684 12.857-10.158.746-20.416-.285-30.187-3.174a17.892 17.892 0 0 1 5.564-3.538c3.871-1.541 7.931-2.598 12.081-3.017.897-.148 1.723-.057 2.333-.866-.791-.612-1.618-1.119-2.615-1.327-3.563-.861-7.586-.359-11.107.527-4.444 1.088-8.757 2.957-11.95 6.324-1.248-.496-2.507-.966-3.74-1.49-.39-.205-.815-.282-.972-.738-.897-2.493-.868-5.358.65-7.609 1.923-2.917 5.41-4.885 8.572-6.182 4.603-1.825 9.879-2.905 14.822-2.207 1.76.211 3.406.709 5.193.706-.208-1.23-1.191-1.76-2.145-2.401-3.239-1.943-7.273-2.547-10.996-2.274-5.78.488-11.301 1.901-15.973 5.487-.279-1.678-.473-3.33-.225-5.031.348-2.475 1.61-4.831 3.786-6.15 3.008-1.874 6.646-2.917 10.124-3.464 4.549-.655 9.318-.396 13.57 1.459ZM64.414 193.508c2.453-.35 4.817-.341 6.908 1.16-.883 1.464-1.612 2.951-2.137 4.583-1.655-1.849-3.318-3.726-4.771-5.743Z"/><defs><filter id="a" width="213.822" height="244.438" x="25.236" y="5.98" color-interpolation-filters="sRGB" filterUnits="userSpaceOnUse"><feFlood flood-opacity="0" result="BackgroundImageFix"/><feColorMatrix in="SourceAlpha" result="hardAlpha" values="0 0 0 0 0 0 0 0 0 0 0 0 0 0 0 0 0 0 127 0"/><feOffset dx="4.2" dy="4.2"/><feGaussianBlur stdDeviation="4.2"/><feComposite in2="hardAlpha" operator="out"/><feColorMatrix values="0 0 0 0 0 0 0 0 0 0 0 0 0 0 0 0 0 0 0.2 0"/><feBlend in2="BackgroundImageFix" result="effect1_dropShadow_1_57"/><feBlend in="SourceGraphic" in2="effect1_dropShadow_1_57" result="shape"/></filter></defs></svg>
